<svg width="38" height="38" viewBox="0 0 38 38" fill="none" xmlns="http://www.w3.org/2000/svg">
  <circle cx="19" cy="19" r="16" stroke="#8BC34A" stroke-width="3" fill="white"/>
  <path d="M19 10a6 6 0 1 0 0 12 6 6 0 0 0 0-12zm0 10a4 4 0 1 1 0-8 4 4 0 0 1 0 8z" fill="#2196F3"/>
  <path d="M19 14v3m0 0v3m0-3h3m-3 0h-3" stroke="#8BC34A" stroke-width="2" stroke-linecap="round"/>
  <path d="M10.5 27c2.5-2.5 7.5-2.5 10 0" stroke="#2196F3" stroke-width="2" stroke-linecap="round"/>
  <circle cx="15.5" cy="16" r="1.2" fill="#2196F3"/>
</svg>
